<svg width="942" height="1063" viewBox="0 0 942 1063" fill="none" xmlns="http://www.w3.org/2000/svg">
<path fill-rule="evenodd" clip-rule="evenodd" d="M517.378 0.801074C637.71 6.51723 764.288 51.226 837.76 144.309C905.693 230.374 860.048 352.582 879.452 459.519C895.053 545.492 953.277 621.753 940.066 708.106C925.429 803.773 878.766 895.068 803.224 957.774C724.105 1023.45 619.314 1078.63 517.378 1058.97C418.579 1039.91 387.802 914.911 303.391 861.351C211.033 802.749 50.0131 834.867 7.79656 735.631C-33.5599 638.418 101.785 553.023 128.883 451.15C158.9 338.304 96.5137 201.974 173.48 112.753C253.219 20.3189 393.639 -5.07695 517.378 0.801074Z" fill="#E5E5E5"/>
<g clip-path="url(#clip0_2_94)">
<path fill-rule="evenodd" clip-rule="evenodd" d="M547.755 75.6609C647.01 80.3769 751.416 117.263 812.019 194.058C868.053 265.064 830.403 365.888 846.408 454.114C859.276 525.044 907.302 587.961 896.404 659.204C884.332 738.132 845.842 813.452 783.532 865.186C718.271 919.368 631.835 964.895 547.755 948.671C466.261 932.947 440.875 829.823 371.249 785.635C295.069 737.287 162.253 763.785 127.431 681.913C93.3184 601.71 204.957 531.257 227.308 447.209C252.067 354.108 200.608 241.633 264.094 168.024C329.865 91.7636 445.689 70.8114 547.755 75.6609Z" fill="#FDC435"/>
</g>
<path fill-rule="evenodd" clip-rule="evenodd" d="M545.839 849.852C539.397 849.106 534.735 845.096 535.275 839.044L546.843 708.237C547.676 698.912 556.632 692.108 566.557 693.258C576.483 694.407 583.395 703.05 581.773 712.283L557.799 841.822C556.746 847.815 552.28 850.598 545.839 849.852Z" fill="#FFC999"/>
<path fill-rule="evenodd" clip-rule="evenodd" d="M624.743 848.002C631.232 848.143 636.684 843.468 637.095 837.407L645.873 707.77C646.506 698.432 638.709 690.476 628.712 690.255C618.712 690.034 610.524 697.639 610.688 706.996L612.939 836.876C613.043 842.948 618.253 847.859 624.743 848.002Z" fill="#FFC999"/>
<path fill-rule="evenodd" clip-rule="evenodd" d="M631.757 569.169C643.538 569.428 652.781 578.711 652.223 589.725L646.232 708.134C645.77 717.254 637.613 724.363 627.858 724.148C618.102 723.932 610.312 716.472 610.311 707.344L610.279 588.801C610.276 577.775 619.976 568.91 631.757 569.169Z" fill="#FFC999"/>
<path fill-rule="evenodd" clip-rule="evenodd" d="M582.462 573.054C570.767 571.7 560.173 579.619 559.003 590.591L546.432 708.548C545.463 717.633 552.422 725.781 562.106 726.902C571.79 728.023 580.662 721.709 582.092 712.678L600.642 595.414C602.368 584.506 594.157 574.41 582.462 573.054Z" fill="#FFC999"/>
<path fill-rule="evenodd" clip-rule="evenodd" d="M639.073 852.754L614.01 853.059L613.339 896.028L669.812 895.342L669.858 888.746C669.867 886.321 668.016 884.239 665.467 883.805L650.419 879.862L642.659 875.855C640.322 874.646 638.885 872.341 638.922 869.843C638.997 864.475 639.115 855.368 639.073 852.754Z" fill="#4E5C93"/>
<path fill-rule="evenodd" clip-rule="evenodd" d="M531.636 852.223L556.695 852.75L552.123 895.724L495.66 894.536L495.68 887.939C495.696 885.515 497.569 883.449 500.121 883.038L515.211 879.229L523.009 875.289C525.359 874.102 527.424 871.684 528.266 869.313C529.821 864.926 531.566 854.835 531.636 852.223Z" fill="#4E5C93"/>
<path fill-rule="evenodd" clip-rule="evenodd" d="M636.819 854.111L614.023 854.387L612.272 820.666L638.444 820.349L636.819 854.111Z" fill="#597EF7"/>
<path fill-rule="evenodd" clip-rule="evenodd" d="M531.982 853.599L556.231 854.078L562.661 820.375L536.493 819.825L531.982 853.599Z" fill="#597EF7"/>
<path d="M638.247 826.383C638.66 826.378 639 826.687 639.005 827.074C639.01 827.429 638.733 827.725 638.368 827.776L638.266 827.783L614.103 828.076C613.69 828.081 613.351 827.772 613.345 827.385C613.34 827.031 613.618 826.734 613.982 826.683L614.084 826.676L638.247 826.383Z" fill="#E4EBF7"/>
<path d="M670.092 888.664C670.304 888.661 670.477 888.82 670.48 889.018C670.483 889.191 670.353 889.337 670.179 889.372L670.102 889.38L613.801 890.064C613.59 890.067 613.416 889.909 613.413 889.711C613.411 889.538 613.54 889.392 613.714 889.356L613.791 889.348L670.092 888.664Z" fill="#A3B5D6"/>
<path d="M536.66 825.86L560.819 826.368C561.233 826.376 561.56 826.697 561.551 827.084C561.542 827.438 561.254 827.725 560.887 827.764L560.786 827.768L536.627 827.26C536.214 827.251 535.886 826.93 535.895 826.544C535.904 826.189 536.192 825.902 536.559 825.864L536.66 825.86Z" fill="#E4EBF7"/>
<path d="M495.448 887.855L551.74 889.039C551.952 889.043 552.119 889.207 552.115 889.405C552.11 889.578 551.976 889.72 551.8 889.75L551.723 889.755L495.43 888.571C495.219 888.567 495.051 888.403 495.056 888.205C495.06 888.032 495.195 887.89 495.37 887.861L495.448 887.855Z" fill="#A3B5D6"/>
<path fill-rule="evenodd" clip-rule="evenodd" d="M670.097 889.022C670.045 885.299 667.114 882.16 663.178 881.615L650.417 879.843L649.704 889.139L670.097 889.022Z" fill="#E4EBF7"/>
<path fill-rule="evenodd" clip-rule="evenodd" d="M613.903 897.421L670.204 896.739C670.738 896.732 671.165 896.322 671.158 895.822L671.076 889.915C671.069 889.415 670.63 889.017 670.097 889.022L613.797 889.705C613.262 889.712 612.836 890.122 612.841 890.622L612.924 896.529C612.932 897.028 613.368 897.428 613.903 897.421Z" fill="#E4EBF7"/>
<path d="M638.499 867.672C638.912 867.585 639.321 867.828 639.414 868.214C639.506 868.6 639.247 868.983 638.834 869.07L638.62 869.121L638.537 869.143C638.286 869.209 638.005 869.292 637.701 869.393C636.832 869.683 635.963 870.058 635.157 870.525C634.834 870.713 634.529 870.911 634.243 871.12L634.129 871.206L634.155 871.21C634.454 871.247 634.772 871.293 635.108 871.347L635.802 871.463C636.275 871.546 636.769 871.64 637.278 871.744C637.747 871.839 638.212 871.938 638.666 872.039L640.021 872.353C640.089 872.37 640.147 872.384 640.194 872.396C640.844 872.558 640.971 873.368 640.4 873.698L640.329 873.741C640.284 873.769 640.222 873.808 640.146 873.858C639.928 874.002 639.684 874.175 639.419 874.378C638.877 874.794 638.333 875.269 637.808 875.802L637.735 875.879L637.886 875.878C638.165 875.88 638.452 875.887 638.747 875.899L639.195 875.922C640.447 875.994 641.777 876.152 643.128 876.37C643.626 876.45 644.104 876.534 644.552 876.62L645.433 876.797C645.556 876.824 645.653 876.845 645.722 876.861C646.53 877.047 646.486 878.136 645.665 878.264C645.534 878.284 645.272 878.346 644.925 878.465C644.335 878.666 643.745 878.956 643.196 879.348C642.653 879.735 642.181 880.202 641.795 880.76C641.565 881.092 641.091 881.187 640.736 880.971C640.381 880.756 640.279 880.312 640.509 879.98C640.994 879.28 641.588 878.692 642.267 878.208C642.422 878.097 642.578 877.994 642.732 877.898L642.913 877.788L642.868 877.782C641.785 877.608 640.717 877.473 639.703 877.393L639.101 877.352C637.978 877.287 636.978 877.298 636.137 877.396C635.471 877.473 635.029 876.769 635.424 876.262C635.611 876.023 635.804 875.79 636.002 875.563C636.669 874.8 637.377 874.13 638.091 873.551L638.254 873.421L637.638 873.287L636.954 873.144C636.458 873.044 635.978 872.952 635.52 872.871L634.919 872.77C633.854 872.599 632.99 872.509 632.402 872.516C631.75 872.524 631.387 871.815 631.801 871.344C632.492 870.56 633.355 869.885 634.35 869.308C635.256 868.782 636.222 868.365 637.187 868.043L637.599 867.911C637.985 867.793 638.294 867.715 638.499 867.672Z" fill="#E4EBF7"/>
<path d="M638.575 861.346L638.203 861.352C638.084 861.356 637.952 861.36 637.808 861.366L637.582 861.377C637.006 861.405 636.383 861.452 635.723 861.521C633.915 861.709 632.113 862.029 630.414 862.515C625.557 863.903 622.341 866.381 621.71 870.234C621.305 872.705 622.464 873.945 624.672 873.604C626.208 873.368 628.285 872.383 630.82 870.806C631.575 870.336 632.36 869.82 633.168 869.265C634.536 868.326 635.903 867.32 637.207 866.315L637.983 865.71L638.907 864.97C639.018 864.905 639.273 864.716 639.532 864.47C639.97 864.054 640.263 863.624 640.326 863.138C640.427 862.344 639.874 861.726 638.832 861.386C638.749 861.359 638.663 861.346 638.575 861.346ZM638.444 862.78C638.602 862.84 638.706 862.896 638.767 862.945L638.802 862.977L638.805 862.967C638.792 863.063 638.662 863.254 638.441 863.464C638.262 863.634 638.078 863.771 637.969 863.841L636.752 864.806C636.585 864.936 636.412 865.07 636.233 865.209C634.95 866.198 633.604 867.188 632.262 868.11C631.472 868.653 630.706 869.156 629.972 869.612C627.608 871.082 625.681 871.996 624.423 872.19C623.302 872.363 622.969 872.007 623.224 870.451C623.747 867.257 626.507 865.13 630.862 863.886C632.461 863.429 634.172 863.124 635.892 862.945C636.774 862.853 637.536 862.806 638.127 862.788L638.444 862.78Z" fill="#E4EBF7"/>
<path fill-rule="evenodd" clip-rule="evenodd" d="M551.546 897.111L495.253 895.928C494.72 895.917 494.296 895.503 494.308 895.003L494.451 889.097C494.462 888.597 494.905 888.202 495.439 888.213L551.73 889.397C552.265 889.409 552.687 889.822 552.676 890.322L552.533 896.229C552.521 896.727 552.078 897.122 551.546 897.111Z" fill="#E4EBF7"/>
<path fill-rule="evenodd" clip-rule="evenodd" d="M495.439 888.213C495.528 884.49 498.491 881.378 502.434 880.866L515.211 879.208L515.83 888.511L495.439 888.213Z" fill="#E4EBF7"/>
<path d="M526.333 867.679C526.429 867.294 526.841 867.054 527.253 867.145L527.49 867.201C527.758 867.27 528.121 867.377 528.554 867.525C529.51 867.853 530.466 868.276 531.364 868.805C532.362 869.394 533.226 870.081 533.913 870.877C534.323 871.351 533.952 872.057 533.3 872.044C532.605 872.029 531.521 872.147 530.175 872.372C529.705 872.45 529.212 872.54 528.703 872.638L528.026 872.773L527.438 872.896L527.588 873.016C528.173 873.499 528.754 874.045 529.312 874.654L529.643 875.027C529.849 875.266 530.048 875.511 530.241 875.763C530.631 876.273 530.181 876.973 529.516 876.89C528.672 876.784 527.667 876.764 526.537 876.82C525.528 876.87 524.457 876.978 523.364 877.13L522.735 877.222L522.892 877.317L523.121 877.467L523.351 877.627C524.036 878.121 524.633 878.721 525.117 879.435C525.344 879.769 525.238 880.212 524.881 880.424C524.524 880.636 524.05 880.536 523.824 880.202C523.439 879.634 522.963 879.157 522.416 878.762C521.874 878.371 521.291 878.08 520.71 877.876C520.367 877.756 520.109 877.693 519.979 877.671C519.16 877.536 519.127 876.447 519.937 876.268L520.488 876.155L520.647 876.124C521.201 876.018 521.811 875.912 522.458 875.812C523.83 875.602 525.184 875.452 526.456 875.389C526.912 875.366 527.352 875.355 527.773 875.357L527.933 875.358L527.84 875.26C527.427 874.833 527.002 874.444 526.575 874.092L526.255 873.835C526.06 873.683 525.876 873.547 525.706 873.428L525.36 873.197C525.33 873.178 525.307 873.163 525.291 873.154C524.723 872.818 524.858 872.01 525.51 871.854L526.357 871.66C527.008 871.515 527.696 871.37 528.392 871.235C528.915 871.134 529.422 871.042 529.906 870.961C530.386 870.881 530.836 870.813 531.252 870.76L531.586 870.718L531.464 870.623C531.273 870.482 531.073 870.345 530.865 870.212L530.547 870.018C529.748 869.546 528.888 869.166 528.026 868.871C527.801 868.793 527.587 868.726 527.39 868.669L527.045 868.574C526.98 868.558 526.932 868.546 526.904 868.54C526.492 868.45 526.236 868.064 526.333 867.679Z" fill="#E4EBF7"/>
<path d="M527.235 860.819C527.15 860.818 527.065 860.831 526.984 860.856C525.916 861.194 525.356 861.829 525.479 862.641C525.55 863.111 525.835 863.53 526.256 863.936C526.511 864.183 526.762 864.373 526.943 864.491L526.977 864.524C527.036 864.575 527.165 864.681 527.33 864.816L528.039 865.387C528.207 865.521 528.383 865.66 528.565 865.803C529.863 866.824 531.225 867.845 532.586 868.799C533.391 869.362 534.172 869.886 534.924 870.362C537.438 871.956 539.5 872.955 541.029 873.202C543.228 873.557 544.395 872.326 544.015 869.856C543.429 866.036 540.292 863.539 535.522 862.099C533.706 861.552 531.769 861.195 529.833 860.99C529.292 860.933 528.781 860.891 528.309 860.863L527.962 860.843C527.62 860.826 527.372 860.82 527.235 860.819ZM527.357 862.254L527.594 862.262L527.881 862.274C528.417 862.301 529.016 862.346 529.661 862.415C531.503 862.609 533.343 862.948 535.052 863.463C539.325 864.752 542.013 866.893 542.499 870.06C542.738 871.616 542.403 871.969 541.289 871.79C540.038 871.588 538.126 870.661 535.783 869.176C535.053 868.713 534.29 868.202 533.504 867.651C532.435 866.902 531.364 866.11 530.324 865.308L529.55 864.706C529.282 864.495 529.028 864.293 528.79 864.102L527.893 863.37C527.713 863.246 527.532 863.109 527.355 862.938L527.268 862.851C527.132 862.707 527.042 862.577 527.009 862.488L526.997 862.447C527.041 862.398 527.156 862.328 527.357 862.254Z" fill="#E4EBF7"/>
<path fill-rule="evenodd" clip-rule="evenodd" d="M664.164 385.787C664.164 385.787 679.384 381.339 686.137 396.134C702.114 399.011 700.632 415.038 700.632 415.038C700.632 415.038 710.286 426.009 696.281 434.465C697.197 447.05 681.745 447.05 681.745 447.05C681.745 447.05 679.77 457.174 667.645 454.942C656.828 465.78 633.24 467.461 623.094 457.708C608.66 471.609 577.75 461.906 579.541 450.92C560.213 452.701 547.684 435.093 556.142 417.278C545.344 405.805 553.876 396.801 553.876 396.801C553.876 396.801 546.152 367.89 567.17 360.696C575.618 343.241 601.891 352.319 601.891 352.319C601.891 352.319 617.33 346.828 625.272 358.939C643.556 358.835 644.288 368.138 646.978 375.638C663.092 374.094 664.164 385.787 664.164 385.787Z" fill="#253368"/>
<path fill-rule="evenodd" clip-rule="evenodd" d="M612.203 378.883C600.043 382.81 594.726 374.521 594.726 374.521C594.726 374.521 587.43 362.819 587.418 370.676C587.411 374.852 579.76 370.457 577.41 375.259C575.829 378.49 581.675 381.474 576.246 390.273C573.099 395.369 589.167 396.655 581.055 406.396C581.055 406.396 589.57 415.53 578.492 420.583L579.293 432.667C579.759 439.699 586.607 444.821 594.043 443.697C601.131 442.626 605.873 436.288 604.525 429.689L601.572 415.251C619.651 412.545 616.558 389.165 612.203 378.883Z" fill="#FFC999"/>
<path fill-rule="evenodd" clip-rule="evenodd" d="M716.572 433.608L725.745 403.278C725.745 403.278 740.768 378.668 746.194 380.182C751.233 382.246 739.842 389.29 737.584 396.243C742.38 395.922 740.202 402.597 740.202 402.597C740.202 402.597 744.02 402.468 742.993 407.906C746.539 409.869 743.697 416.111 743.697 416.111C743.697 416.111 736.574 432.553 728.682 443.519C728.682 443.519 715.589 452.979 716.572 433.608Z" fill="#FFC999"/>
<path fill-rule="evenodd" clip-rule="evenodd" d="M718.61 423.361C718.61 423.361 719.979 412.958 721.002 407.66C722.026 402.361 719.634 392.79 723.764 395.326C726.541 397.031 726.058 402.724 725.957 406.923C725.858 411.12 733.105 421.071 727.704 427.958C724.056 432.613 718.303 433.224 718.61 423.361Z" fill="#FFC999"/>
<path fill-rule="evenodd" clip-rule="evenodd" d="M727.032 431.544C723.271 429.205 718.208 430.048 715.541 433.458L664.04 499.274C659.521 505.468 661.284 513.924 667.961 518.075C674.697 522.261 683.796 520.434 688.101 514.03L729.788 441.885C731.866 438.29 730.671 433.807 727.032 431.544Z" fill="#FFC999"/>
<path d="M591.254 394.71C591.517 394.369 592.025 394.293 592.388 394.54L592.491 394.605C592.559 394.646 592.652 394.7 592.769 394.763C593.104 394.946 593.494 395.13 593.934 395.302C595.972 396.101 598.255 396.365 600.659 395.778C601.093 395.672 601.537 395.915 601.65 396.322C601.763 396.728 601.503 397.143 601.069 397.249C598.288 397.928 595.651 397.623 593.306 396.704C592.433 396.362 591.796 396.015 591.435 395.771C591.072 395.525 590.991 395.05 591.254 394.71Z" fill="#F5222D"/>
<path d="M590.703 382.677C591.129 382.613 591.53 382.885 591.598 383.284C592.072 386.06 590.228 388.667 587.437 389.086C584.648 389.502 582.026 387.562 581.552 384.787C581.484 384.388 581.775 384.013 582.201 383.949C582.628 383.886 583.028 384.158 583.096 384.556C583.438 386.559 585.285 387.926 587.19 387.641C589.097 387.355 590.396 385.519 590.054 383.515C589.986 383.116 590.277 382.741 590.703 382.677Z" fill="#253368"/>
<path d="M610.267 380.258C610.672 380.197 611.053 380.455 611.117 380.833C611.587 383.576 609.968 386.147 607.417 386.529C604.865 386.91 602.47 384.941 602.001 382.198C601.936 381.82 602.211 381.464 602.616 381.403C603.02 381.343 603.401 381.6 603.466 381.979C603.815 384.016 605.508 385.408 607.182 385.158C608.856 384.907 610.001 383.089 609.652 381.053C609.588 380.674 609.863 380.318 610.267 380.258Z" fill="#253368"/>
<path d="M582.554 375.31C585.121 374.379 587.83 374.333 590.349 374.808L590.754 374.89C591.13 374.971 591.417 375.048 591.601 375.106C592.01 375.236 592.229 375.651 592.091 376.034C591.952 376.417 591.508 376.622 591.099 376.492L590.927 376.442C590.722 376.386 590.422 376.315 590.04 376.243C587.788 375.818 585.367 375.859 583.119 376.674C582.071 377.054 581.102 377.593 580.224 378.309C579.899 378.575 579.405 378.543 579.121 378.239C578.837 377.934 578.871 377.472 579.197 377.207C580.214 376.377 581.34 375.75 582.554 375.31Z" fill="#253368"/>
<path fill-rule="evenodd" clip-rule="evenodd" d="M684.875 516.928C691.517 512.596 693.146 504.046 688.515 497.831L643.392 437.278C638.76 431.065 629.623 429.539 622.981 433.871C616.34 438.203 614.71 446.753 619.341 452.968L664.465 513.521C669.095 519.736 678.232 521.26 684.875 516.928Z" fill="#FFC999"/>
<path d="M618.728 452.839C618.914 452.717 619.163 452.742 619.319 452.887L619.373 452.946L638.233 478.255L661.723 462.578C661.908 462.454 662.157 462.477 662.314 462.62L662.369 462.679C662.501 462.852 662.477 463.085 662.324 463.232L662.26 463.283L638.39 479.215C638.203 479.34 637.952 479.317 637.795 479.171L637.741 479.111L618.613 453.442C618.467 453.246 618.518 452.976 618.728 452.839Z" fill="#4E5C93"/>
<path fill-rule="evenodd" clip-rule="evenodd" d="M638.469 478.637L619.34 452.967C614.728 446.78 616.366 438.186 622.981 433.872C629.595 429.557 638.779 431.09 643.391 437.279L662.338 462.704L638.469 478.637Z" fill="#597EF7"/>
<path fill-rule="evenodd" clip-rule="evenodd" d="M632.036 456.111C635.168 462.496 640.97 473.487 641.691 480.749C642.862 492.522 634.67 501.281 634.67 501.281C634.67 501.281 634.587 497.82 633.792 528.32C596.266 534.479 572.341 527.931 572.341 527.931L573.072 519.845L566.978 500.734C566.978 500.734 563.275 493.616 555.667 477.738C550.379 466.699 550.746 453.015 551.462 445.698C551.769 442.563 550.178 436.019 553.502 435.53C564.797 433.868 572.635 432.973 572.635 432.973L574.009 429.02C574.193 427.824 575.288 426.936 576.579 426.936H605.619C606.804 426.936 607.838 427.687 608.132 428.762L610.167 432.973L625.472 433.483C628.153 433.975 630.471 441.833 630.75 444.375L632.036 456.111Z" fill="#597EF7"/>
<path d="M572.267 434.052C572.503 433.877 572.836 433.892 573.052 434.077L573.12 434.144L599.339 465.075L609.514 436.222C609.609 435.954 609.896 435.796 610.185 435.839L610.281 435.861C610.568 435.949 610.737 436.218 610.691 436.488L610.668 436.578L600.14 466.432C599.999 466.833 599.466 466.946 599.152 466.672L599.088 466.607L572.168 434.85C571.96 434.604 572.004 434.247 572.267 434.052Z" fill="#CCD7EE"/>
<path fill-rule="evenodd" clip-rule="evenodd" d="M607.079 468.655C609.834 473.001 608.592 478.452 604.306 480.83C600.021 483.207 594.314 481.611 591.56 477.265C588.805 472.918 590.046 467.467 594.333 465.09C598.618 462.713 604.324 464.31 607.079 468.655Z" fill="#CCD7EE"/>
<path fill-rule="evenodd" clip-rule="evenodd" d="M608.069 468.634C610.823 472.98 609.581 478.43 605.296 480.807C601.011 483.186 595.303 481.589 592.548 477.242C589.795 472.897 591.036 467.446 595.322 465.069C599.606 462.692 605.314 464.288 608.069 468.634Z" fill="#E4EBF7"/>
<path fill-rule="evenodd" clip-rule="evenodd" d="M606.32 469.391C608.458 472.765 607.495 476.997 604.166 478.843C600.839 480.689 596.408 479.45 594.271 476.076C592.132 472.701 593.094 468.47 596.423 466.624C599.75 464.777 604.181 466.017 606.32 469.391Z" fill="#FAAD14"/>
<path d="M551.475 445.264C551.731 445.271 551.932 445.471 551.925 445.71L551.885 447.433L551.878 447.761C551.816 451.193 551.809 454.82 551.895 458.213L551.923 459.19C552.038 462.873 552.264 465.833 552.618 467.824C553.021 470.081 554.566 473.916 556.961 478.859C557.379 479.722 557.82 480.612 558.28 481.523C559.548 484.034 560.908 486.599 562.267 489.079L562.953 490.325L564.058 492.297L564.109 492.396L573.95 519.849L573.972 520.029L573.134 527.997L573.863 528.13C574.071 528.167 574.291 528.206 574.525 528.245L574.885 528.305C576.645 528.596 578.686 528.888 580.981 529.16C596.654 531.017 614.394 531.026 632.669 527.976L633.414 527.849L633.477 525.632C633.523 524.181 633.594 522.187 633.684 519.728L634.044 510.224L634.357 502.225L634.415 502.032L634.639 501.642L634.998 500.998C635.099 500.813 635.204 500.619 635.313 500.416L635.479 500.105C636.279 498.591 637.08 496.949 637.827 495.238C638.889 492.806 639.753 490.438 640.347 488.214C640.922 486.064 641.228 484.108 641.228 482.393C641.228 478.099 640.619 474.803 639.254 471.404C638.57 469.702 637.692 467.944 636.427 465.701L635.797 464.604C634.947 463.145 633.305 460.374 632.354 458.772L631.63 457.551L631.573 457.359L631.281 450.105C631.271 449.866 631.47 449.665 631.726 449.655C631.953 449.647 632.148 449.794 632.195 449.994L632.206 450.072L632.494 457.222L636.288 463.637L636.985 464.838L637.498 465.747C638.646 467.809 639.468 469.474 640.12 471.099C641.526 474.598 642.154 477.997 642.154 482.393C642.154 484.187 641.837 486.211 641.245 488.425C640.639 490.692 639.762 493.098 638.684 495.566C638.036 497.05 637.349 498.482 636.655 499.825L636.309 500.489C636.138 500.811 635.975 501.113 635.821 501.394L635.278 502.36L634.521 522.207C634.409 525.328 634.345 527.379 634.337 528.092L634.337 528.211C634.337 528.42 634.177 528.599 633.958 528.637C615.185 531.896 596.946 531.925 580.865 530.019C578.785 529.773 576.912 529.511 575.264 529.246L574.723 529.158C574.35 529.097 574.005 529.038 573.69 528.982L572.534 528.765C572.333 528.724 572.189 528.565 572.172 528.38L572.173 528.299L573.04 520.035L563.262 492.738L562.761 491.852C562.363 491.144 561.92 490.346 561.443 489.475C560.079 486.986 558.716 484.413 557.443 481.893L556.764 480.537C556.654 480.314 556.545 480.092 556.437 479.872L556.117 479.216C553.689 474.206 552.125 470.323 551.704 467.966C551.31 465.751 551.075 462.409 550.969 458.234C550.895 455.313 550.89 452.224 550.929 449.233L550.965 447.1L550.999 445.685C551.007 445.446 551.22 445.258 551.475 445.264Z" fill="#4E5C93"/>
<path fill-rule="evenodd" clip-rule="evenodd" d="M523.841 527.141L523.423 526.99C515.992 524.29 512.306 516.465 515.191 509.512L542.712 443.189C545.598 436.236 553.963 432.788 561.394 435.488L561.812 435.639C569.244 438.339 572.929 446.164 570.043 453.119L542.524 519.439C539.638 526.393 531.273 529.841 523.841 527.141Z" fill="#FFC999"/>
<path fill-rule="evenodd" clip-rule="evenodd" d="M572.928 534.397C559.744 535.363 520.864 612.354 509.043 640.228C510.617 645.842 527.818 656.708 527.818 656.708C527.818 656.708 526.79 661.176 526.156 663.861C537.406 672.518 559.166 677.221 559.166 677.221L559.214 681.062C594.003 696.05 640.59 681.685 640.59 681.685C640.59 681.685 641.459 680.853 640.836 677.841C656.631 677.669 690.454 658.92 690.454 658.92L685.646 649.644L699.557 636.322C699.557 636.322 661.991 571.664 650.428 553.578C640.277 537.702 630.756 533.13 630.756 533.13C630.756 533.13 596.321 532.683 572.928 534.397Z" fill="#4E5C93"/>
<path fill-rule="evenodd" clip-rule="evenodd" d="M633.274 534.396L632.281 527.344C632.281 527.344 602.525 527.511 573.342 526.143C572.605 529.274 571.758 534.907 571.758 534.907C574.211 533.021 600.72 538.528 633.274 534.396Z" fill="#4E5C93"/>
<path d="M632.189 548.147C632.451 548.027 632.761 548.106 632.925 548.322L632.973 548.398L690.387 658.136C690.509 658.369 690.44 658.65 690.222 658.809L689.861 659.065L689.274 659.468C689.13 659.566 688.978 659.668 688.817 659.775C687.67 660.536 686.321 661.384 684.778 662.297C680.373 664.901 675.292 667.505 669.604 669.935C660.762 673.712 651.273 676.713 641.251 678.65C640.934 678.711 640.624 678.52 640.558 678.224C640.493 677.927 640.697 677.637 641.014 677.576C650.946 675.656 660.351 672.681 669.117 668.937C674.755 666.529 679.79 663.949 684.152 661.37C685.507 660.568 686.71 659.818 687.754 659.134L688.369 658.727L689.121 658.212L631.92 548.881C631.792 548.636 631.877 548.345 632.107 548.193L632.189 548.147Z" fill="#253368"/>
<path d="M562.718 570.937C562.833 570.654 563.171 570.511 563.474 570.618C563.746 570.714 563.897 570.98 563.841 571.239L563.815 571.325L526.293 664.193L526.909 664.55L527.655 664.97C528.305 665.331 529.022 665.718 529.803 666.126C532.932 667.758 536.437 669.392 540.235 670.916C546.426 673.4 552.779 675.346 559.134 676.548C559.451 676.608 559.656 676.897 559.592 677.194C559.528 677.491 559.219 677.683 558.902 677.623C552.462 676.405 546.034 674.436 539.773 671.924C535.936 670.384 532.394 668.734 529.232 667.083C528.283 666.588 527.426 666.123 526.669 665.696L525.882 665.246L525.255 664.874C525.051 664.749 524.954 664.521 525.003 664.303L525.028 664.222L562.718 570.937Z" fill="#253368"/>
<path d="M587.867 536.47L587.962 536.482C588.248 536.536 588.443 536.775 588.433 537.039L588.417 537.151L586.172 547.754C585.399 551.425 584.575 555.355 583.708 559.507L583.231 561.793C579.616 579.142 576.001 596.808 572.594 613.891L571.812 617.823C571.395 619.919 570.985 621.995 570.58 624.05L568.411 635.13C565.214 651.586 562.503 666.139 560.377 678.351L559.878 681.238L560.679 681.487C561.527 681.745 562.381 681.993 563.24 682.232L564.532 682.583C585.397 688.11 607.696 687.797 628.755 683.946C632.097 683.335 635.111 682.68 637.747 682.026L638.509 681.834C638.876 681.74 639.222 681.649 639.546 681.563L640.497 681.301L614.371 558.783C614.314 558.515 614.475 558.255 614.739 558.162L614.831 558.138C615.117 558.084 615.395 558.235 615.494 558.482L615.52 558.568L641.751 681.572C641.809 681.845 641.64 682.115 641.357 682.201L640.498 682.446L639.87 682.617C639.431 682.734 638.955 682.858 638.441 682.987L638.048 683.086C635.387 683.746 632.348 684.406 628.98 685.022C607.756 688.904 585.281 689.219 564.213 683.638C562.465 683.175 560.738 682.673 559.032 682.13C558.762 682.044 558.597 681.788 558.642 681.524L559.37 677.319C561.473 665.278 564.134 651.013 567.257 634.935L568.624 627.934C569.287 624.555 569.965 621.117 570.659 617.623C574.034 600.631 577.632 582.988 581.246 565.593L584.378 550.603L587.272 536.913C587.329 536.645 587.585 536.463 587.867 536.47Z" fill="#253368"/>
<path d="M601.928 538.584C602.218 538.569 602.472 538.755 602.533 539.013L602.546 539.101L608.711 641.401C608.729 641.703 608.482 641.962 608.159 641.98C607.868 641.994 607.614 641.809 607.553 641.551L607.54 641.462L601.375 539.163C601.357 538.86 601.604 538.602 601.928 538.584Z" fill="#253368"/>
<path d="M617.594 535.968C617.872 535.887 618.166 536.01 618.292 536.246L618.328 536.329L641.475 606.051C641.571 606.34 641.398 606.648 641.089 606.738C640.811 606.818 640.517 606.696 640.391 606.459L640.355 606.377L617.208 536.654C617.112 536.365 617.285 536.057 617.594 535.968Z" fill="#253368"/>
<path d="M574.89 534.358C588.024 534.933 600.774 535.192 612.124 535.191L615.996 535.18C619.996 535.158 623.529 535.101 626.226 535.023L627.51 534.981C627.901 534.967 628.255 534.953 628.566 534.939L629.193 534.907C629.403 534.895 629.575 534.883 629.706 534.872L629.863 534.856L629.931 534.832C630.017 534.807 630.11 534.8 630.203 534.815L630.295 534.837L630.37 534.846C630.511 534.87 630.527 534.955 630.648 535.598L630.407 535.833C630.334 535.898 630.313 535.899 630.26 535.903C630.215 535.915 630.166 535.925 630.108 535.933L630.013 535.945C629.931 535.954 629.828 535.963 629.704 535.973L629.265 536.001C628.702 536.034 627.909 536.067 626.937 536.098L624.919 536.154C622.269 536.218 618.997 536.263 615.367 536.28L614.723 536.283C602.718 536.327 589 536.074 574.836 535.454C574.512 535.44 574.262 535.183 574.278 534.881C574.293 534.578 574.567 534.344 574.89 534.358Z" fill="#253368"/>
<path fill-rule="evenodd" clip-rule="evenodd" d="M559.055 479.601L571.16 450.429C574.078 443.396 570.316 435.409 562.8 432.679C555.284 429.949 546.747 433.468 543.827 440.5L531.838 469.396L559.055 479.601Z" fill="#597EF7"/>
<path d="M605.507 435.936C605.762 435.936 605.97 436.13 605.97 436.37C605.97 436.582 605.806 436.759 605.59 436.796L605.507 436.803H580.669C580.414 436.803 580.206 436.609 580.206 436.37C580.206 436.157 580.37 435.98 580.586 435.943L580.669 435.936H605.507Z" fill="#4E5C93"/>
<path d="M571.123 450.416C571.215 450.193 571.483 450.082 571.722 450.169C571.934 450.246 572.051 450.453 572.009 450.654L571.986 450.729L559.88 479.901C559.797 480.1 559.574 480.21 559.357 480.168L559.276 480.146L532.06 469.941C531.822 469.852 531.707 469.6 531.802 469.378C531.887 469.18 532.109 469.073 532.324 469.114L532.404 469.137L559.186 479.178L571.123 450.416Z" fill="#4E5C93"/>
<path fill-rule="evenodd" clip-rule="evenodd" d="M600.098 529.217L624.11 467.953C624.506 466.944 625.548 466.283 626.697 466.314L686.228 467.904C688.077 467.953 689.315 469.702 688.644 471.315L663.773 530.892C663.374 531.851 662.386 532.481 661.287 532.483L602.613 532.58C600.752 532.582 599.457 530.851 600.098 529.217Z" fill="#4E5C93"/>
<path fill-rule="evenodd" clip-rule="evenodd" d="M603.268 528.583L626.862 468.387C627.341 467.164 628.602 466.366 629.994 466.402L690.261 468.013C691.554 468.047 692.421 469.269 691.949 470.397L666.736 530.799C666.293 531.86 665.201 532.559 663.984 532.561L606.313 532.655C604.06 532.659 602.492 530.563 603.268 528.583Z" fill="#253368"/>
<path fill-rule="evenodd" clip-rule="evenodd" d="M634.848 472.483C635.49 473.211 635.193 474.433 634.182 475.212C633.173 475.993 631.835 476.035 631.193 475.307C630.551 474.58 630.848 473.358 631.857 472.579C632.867 471.798 634.206 471.756 634.848 472.483Z" fill="#4E5C93"/>
<path fill-rule="evenodd" clip-rule="evenodd" d="M634.016 473.185C634.349 473.562 634.195 474.197 633.671 474.601C633.147 475.006 632.451 475.029 632.119 474.652C631.785 474.273 631.94 473.638 632.464 473.234C632.986 472.829 633.682 472.807 634.016 473.185Z" fill="#FFC999"/>
<path fill-rule="evenodd" clip-rule="evenodd" d="M622.794 528.299C622.155 532.482 618.111 535.454 613.616 535.047L526.841 527.177C518.893 526.207 513.323 519.346 514.459 511.923C515.604 504.432 523.12 499.297 531.093 500.555L616.382 519.489C620.633 520.433 623.413 524.253 622.794 528.299Z" fill="#FFC999"/>
<path fill-rule="evenodd" clip-rule="evenodd" d="M622.808 538.164C622.808 538.164 602.897 536.276 600.336 527.981C598.016 520.469 605.746 517.401 605.746 517.401C605.746 517.401 612.914 513.213 622.181 511.768C628.286 510.817 640.093 510.109 641.06 513.042C642.322 516.866 628.909 516.939 628.884 519.852C628.86 522.84 631.632 523.017 637.794 525.36C641.647 526.824 644.048 525.916 647.06 527.74C652.949 531.305 646.022 541.906 622.808 538.164Z" fill="#FFC999"/>
<path d="M599.125 381.566C599.409 381.542 599.663 381.717 599.732 381.968L599.772 382.206C599.787 382.276 599.808 382.367 599.837 382.476C599.94 382.856 600.103 383.298 600.34 383.796C601.03 385.241 602.182 386.827 603.91 388.501C604.138 388.722 604.122 389.077 603.875 389.279L603.128 389.885C602.038 390.762 601.087 391.489 600.274 392.078L599.699 392.487L599.105 392.889C599.09 392.898 599.078 392.906 599.067 392.913C598.803 393.079 598.447 393.013 598.27 392.766C598.093 392.52 598.164 392.186 598.427 392.02L598.703 391.838L599.014 391.625C599.125 391.547 599.245 391.462 599.373 391.371L599.571 391.228C600.28 390.714 601.098 390.092 602.027 389.352L602.669 388.836L602.429 388.59C601.069 387.173 600.091 385.809 599.437 384.528L599.291 384.234C598.834 383.277 598.642 382.562 598.603 382.148C598.575 381.853 598.809 381.592 599.125 381.566Z" fill="#DD936F"/>
<path d="M589.506 414.106C589.612 413.826 589.94 413.679 590.239 413.778C594.051 415.039 597.842 415.392 601.502 414.892C601.816 414.849 602.108 415.052 602.154 415.346C602.199 415.64 601.982 415.913 601.668 415.956C597.823 416.481 593.843 416.11 589.856 414.792C589.557 414.693 589.4 414.386 589.506 414.106Z" fill="#DD936F"/>
<path d="M737.979 395.854C738.209 396.058 738.218 396.398 738 396.613L737.734 396.882L737.394 397.235C737.275 397.359 737.15 397.492 737.021 397.631C736.284 398.425 735.546 399.274 734.859 400.142C734.178 401.002 733.584 401.834 733.102 402.62C731.458 405.296 731.322 407.006 732.885 407.615C733.177 407.73 733.316 408.044 733.194 408.318C733.072 408.592 732.735 408.722 732.442 408.607C729.969 407.642 730.159 405.254 732.105 402.084C732.612 401.259 733.23 400.394 733.936 399.503C734.642 398.61 735.398 397.74 736.154 396.926L736.715 396.332L737.167 395.873C737.386 395.658 737.749 395.649 737.979 395.854Z" fill="#DD936F"/>
<path d="M740.204 402.471C740.397 402.707 740.349 403.044 740.097 403.225L739.817 403.431L739.459 403.702C739.334 403.799 739.203 403.901 739.067 404.008C738.29 404.62 737.514 405.277 736.791 405.95C736.021 406.667 735.358 407.36 734.835 408.01C733.442 409.745 733.224 410.888 734.221 411.459C734.636 411.698 735.103 411.75 735.642 411.633C736.429 411.462 737.319 410.937 738.229 410.167C738.642 409.818 739.03 409.442 739.382 409.066L739.651 408.772C739.724 408.689 739.781 408.622 739.819 408.574C740.012 408.338 740.372 408.293 740.624 408.473C740.877 408.653 740.925 408.99 740.733 409.226L740.541 409.451C740.459 409.544 740.36 409.653 740.246 409.775C739.867 410.18 739.448 410.585 739 410.964C737.958 411.845 736.918 412.459 735.902 412.68C735.084 412.858 734.308 412.771 733.62 412.376C731.826 411.347 732.17 409.54 733.917 407.365C734.476 406.668 735.174 405.938 735.98 405.188C736.728 404.492 737.528 403.816 738.327 403.186L738.731 402.871L739.398 402.372C739.65 402.191 740.01 402.236 740.204 402.471Z" fill="#DD936F"/>
<path d="M741.625 407.771C741.939 407.725 742.233 407.925 742.282 408.218C742.332 408.512 742.118 408.787 741.804 408.833C741.036 408.947 740.054 409.596 738.879 410.89C736.411 413.607 735.9 415.355 736.634 415.756C737.393 416.172 739.196 415.404 740.354 413.853C740.763 413.306 741.66 413.809 741.338 414.404C739.895 417.068 738.204 418.924 736.101 420.368L735.577 420.716C734.697 421.288 734.374 421.451 731.944 422.651L731.376 422.937C728.078 424.645 726.747 426.145 725.985 429.698C725.922 429.989 725.62 430.178 725.309 430.119C724.997 430.061 724.796 429.777 724.858 429.486C725.719 425.476 727.331 423.758 731.113 421.847L733.331 420.743C734.177 420.311 734.474 420.127 735.124 419.701C736.383 418.877 737.485 417.909 738.474 416.698L738.512 416.647L738.371 416.702C737.574 416.985 736.799 417.023 736.191 416.752L736.054 416.684C734.416 415.788 735.126 413.362 738.004 410.194C739.34 408.723 740.534 407.932 741.625 407.771Z" fill="#DD936F"/>
<path d="M726.035 401.139C726.319 401.117 726.573 401.293 726.639 401.544L726.655 401.631L727.351 409.501L727.567 409.858L727.726 410.136C728.056 410.72 728.385 411.371 728.693 412.072C729.585 414.108 730.118 416.151 730.107 418.077C730.098 419.581 729.752 420.952 729.02 422.152C728.863 422.41 728.512 422.5 728.236 422.353C727.961 422.206 727.865 421.877 728.022 421.62C728.65 420.591 728.95 419.4 728.958 418.071C728.968 416.307 728.469 414.395 727.63 412.48C727.396 411.946 727.148 411.442 726.898 410.978L726.71 410.637C726.524 410.306 726.38 410.073 726.301 409.952C726.269 409.904 726.246 409.852 726.232 409.798L726.217 409.715L725.51 401.719C725.484 401.423 725.719 401.164 726.035 401.139Z" fill="#DD936F"/>
<path d="M629.545 527.477C629.734 527.239 630.094 527.189 630.349 527.367L630.496 527.465C630.675 527.579 630.946 527.74 631.307 527.936C632.118 528.376 633.076 528.817 634.174 529.229C637.968 530.654 642.412 531.383 647.432 531.038C647.748 531.016 648.023 531.239 648.047 531.535C648.07 531.831 647.832 532.088 647.516 532.11C642.313 532.467 637.696 531.71 633.746 530.227C632.595 529.795 631.588 529.331 630.731 528.866C630.504 528.743 630.3 528.626 630.118 528.518L629.944 528.411C629.808 528.327 629.714 528.265 629.662 528.229C629.408 528.051 629.355 527.715 629.545 527.477Z" fill="#DD936F"/>
<path d="M626.6 532.156C626.735 531.888 627.077 531.772 627.364 531.898C627.65 532.023 627.94 532.143 628.233 532.259C632.642 534 637.251 534.531 641.133 534.38L641.577 534.359C641.834 534.346 642.01 534.332 642.098 534.324C642.413 534.293 642.696 534.507 642.728 534.803C642.761 535.098 642.532 535.362 642.217 535.393L641.89 535.418C641.817 535.423 641.734 535.428 641.643 535.432C637.511 535.652 632.553 535.131 627.786 533.249C627.48 533.128 627.177 533.002 626.877 532.871C626.59 532.745 626.466 532.425 626.6 532.156Z" fill="#DD936F"/>
<path d="M621.661 534.823C621.825 534.569 622.178 534.487 622.45 534.64L622.58 534.709C622.74 534.789 622.99 534.904 623.332 535.044C624.106 535.362 625.052 535.68 626.177 535.979C628.655 536.637 631.618 537.099 635.087 537.276C635.404 537.292 635.646 537.546 635.629 537.842C635.612 538.138 635.341 538.365 635.024 538.349C631.471 538.168 628.423 537.693 625.863 537.013C624.688 536.701 623.692 536.366 622.871 536.029C622.369 535.823 622.033 535.66 621.857 535.561C621.585 535.408 621.498 535.077 621.661 534.823Z" fill="#DD936F"/>
<defs>
<clipPath id="clip0_2_94">
<rect width="720" height="629" fill="white" transform="translate(121 323)"/>
</clipPath>
</defs>
</svg>
