<svg width="841" height="740" viewBox="0 0 841 740" fill="none" xmlns="http://www.w3.org/2000/svg">
<path fill-rule="evenodd" clip-rule="evenodd" d="M517.378 -322.199C637.71 -316.483 764.288 -271.774 837.76 -178.691C905.693 -92.6259 860.048 29.582 879.452 136.519C895.053 222.492 953.277 298.753 940.066 385.106C925.429 480.773 878.766 572.068 803.224 634.774C724.105 700.448 619.314 755.63 517.378 735.965C418.579 716.906 387.802 591.911 303.391 538.351C211.033 479.749 50.0131 511.867 7.79656 412.631C-33.5599 315.418 101.785 230.023 128.883 128.15C158.9 15.3036 96.5137 -121.026 173.48 -210.247C253.219 -302.681 393.639 -328.077 517.378 -322.199Z" fill="#E5E5E5"/>
<g clip-path="url(#clip0_2_19)">
<path fill-rule="evenodd" clip-rule="evenodd" d="M547.755 -247.339C647.01 -242.623 751.416 -205.737 812.019 -128.942C868.053 -57.9359 830.403 42.8884 846.408 131.114C859.276 202.044 907.302 264.961 896.404 336.204C884.332 415.132 845.842 490.452 783.532 542.186C718.271 596.368 631.835 641.895 547.755 625.671C466.261 609.947 440.875 506.823 371.249 462.635C295.069 414.287 162.253 440.785 127.431 358.913C93.3184 278.71 204.957 208.257 227.308 124.209C252.067 31.1084 200.608 -81.3667 264.094 -154.976C329.865 -231.236 445.689 -252.189 547.755 -247.339Z" fill="#FDC435"/>
</g>
<defs>
<clipPath id="clip0_2_19">
<rect width="720" height="629" fill="white" transform="translate(121)"/>
</clipPath>
</defs>
</svg>
